# xmcd
#
# Track frame offsets: 
#        150
#        14671
#        28863
#        36450
#        44637
#        59932
#        70341
#        81359
#        91203
#        108966
#        122782
#        142283
#
# Disc length: 2081 seconds
#
# Revision: 0
# Processed by: cddbd v1.5.2PL0 Copyright (c) Steve Scherf et al.
# Submitted via: ExactAudioCopy v1.3
#
DISCID=be081f0c
DTITLE=Marty Robbins - In The Middle
DYEAR=2016
DGENRE=Country
TTITLE0=Utah Carol
TTITLE1=Cool Water
TTITLE2=A Hundred And Sixty Acres
TTITLE3=In The Valley
TTITLE4=The Strawberry Roan
TTITLE5=Billy The Kid
TTITLE6=The Little Green Valley
TTITLE7=Running Gun
TTITLE8=Big Iron
TTITLE9=They're Hanging Me Tonight
TTITLE10=El Paso
TTITLE11=The Master's Call
EXTD=
EXTT0=
EXTT1=
EXTT2=
EXTT3=
EXTT4=
EXTT5=
EXTT6=
EXTT7=
EXTT8=
EXTT9=
EXTT10=
EXTT11=
PLAYORDER=
